{"title":"\nKyary Pamyu Pamyu KPP MV01 2015 BluRay ISO [RiCK]","magnet":"magnet:?xt=urn:btih:c971defc144a164057d129b6883550429f501d99&dn=Kyary+Pamyu+Pamyu+KPP+MV01+2015+BluRay+ISO+%5BRiCK%5D&tr=udp%3A%2F%2Ftracker.leechers-paradise.org%3A6969&tr=udp%3A%2F%2Fzer0day.ch%3A1337&tr=udp%3A%2F%2Fopen.demonii.com%3A1337&tr=udp%3A%2F%2Ftracker.coppersurfer.tk%3A6969&tr=udp%3A%2F%2Fexodus.desync.com%3A6969","uploader":"__rick_","categoryP":"video","categoryS":"music_videos","size":"24525864960","seeders":"1","leechers":"1","description":"First music video collection from Kyary Pamyu Pamyu includes all the music videos after her debut produced by Yasutaka Nakata (CAPSULE) in 2011 as well as additional music videos for her older songs Cherry Bonbon (from her debut mini-album, directed by her stylist Iijima Kumiko) and Kyary ANAN (directed by Tamukai Jun).\r\n\r\nTracklist:\r\n\r\nPONPONPON\r\nTsukema Tsukeru (&#x3064;&#x3051;&#x307E;&#x3064;&#x3051;&#x308B;; False Eyelashes)\r\nCANDY CANDY\r\nFashion Monster (&#x30D5;&#x30A1;&#x30C3;&#x30B7;&#x30E7;&#x30F3;&#x30E2;&#x30F3;&#x30B9;&#x30BF;&#x30FC;)\r\nFurisodeshon (&#x3075;&#x308A;&#x305D;&#x3067;&#x30FC;&#x3057;&#x3087;&#x3093;; Furisodation)\r\nNinjari Bang Bang (&#x306B;&#x3093;&#x3058;&#x3083;&#x308A;&#x3070;&#x3093;&#x3070;&#x3093;)\r\nInvader Invader (&#x30A4;&#x30F3;&#x30D9;&#x30FC;&#x30C0;&#x30FC;&#x30A4;&#x30F3;&#x30D9;&#x30FC;&#x30C0;&#x30FC;)\r\nMottai Night Land (&#x3082;&#x3063;&#x305F;&#x3044;&#x306A;&#x3044;&#x3068;&#x3089;&#x3093;&#x3069;)\r\nYume no Hajima Ring Ring (&#x3086;&#x3081;&#x306E;&#x306F;&#x3058;&#x307E;&#x308A;&#x3093;&#x308A;&#x3093;)\r\nFamily Party (&#x30D5;&#x30A1;&#x30DF;&#x30EA;&#x30FC;&#x30D1;&#x30FC;&#x30C6;&#x30A3;&#x30FC;)\r\nKira Kira Killer (&#x304D;&#x3089;&#x304D;&#x3089;&#x30AD;&#x30E9;&#x30FC;; Sparkling Killer)\r\nMondai Girl (&#x3082;&#x3093;&#x3060;&#x3044;&#x30AC;&#x30FC;&#x30EB;; Problem Girl)\r\nCrazy Party Night ~Pumpkin no Gyakushuu~ (Crazy Party Night &#xFF5E;&#x3071;&#x3093;&#x3077;&#x304D;&#x3093;&#x306E;&#x9006;&#x8972;&#xFF5E;; Revenge of the Pumpkin)\r\nCherry Bonbon directed by Kumiko Iijima (&#x30C1;&#x30A7;&#x30EA;&#x30FC;&#x30DC;&#x30F3;&#x30DC;&#x30F3;)\r\nKyary ANAN directed by Jun Tamukai (&#x304D;&#x3083;&#x308A;&#x30FC;ANAN)\r\nMi Koukai Scene directed by Santa Yamagishi (&#x672A;&#x516C;&#x5F00;&#x30B7;&#x30FC;&#x30F3;)\r\n\r\nKPPMV01/BDMV/STREAM/00002.m2ts\r\nFile size                                : 13.7 GiB\r\nDuration                                 : 51 min 23 s\r\nOverall bit rate                         : 38.3 Mb/s\r\nMaximum Overall bit rate                 : 48.0 Mb/s\r\n\r\nVideo\r\nFormat                                   : AVC\r\nFormat profile                           : <a href=\"/cdn-cgi/l/email-protection\" class=\"__cf_email__\" data-cfemail=\"9fd7f6f8f7dfd3abb1ae\">[email&#xA0;protected]</a>\r\nDuration                                 : 51 min 23 s\r\nBit rate                                 : 34.4 Mb/s\r\nMaximum bit rate                         : 38.0 Mb/s\r\nBit rate mode                            : Variable\r\nWidth                                    : 1 920 pixels\r\nHeight                                   : 1 080 pixels\r\nScan type, store method                  : Interleaved fields\r\nScan order                               : Top Field First\r\nStream size                              : 12.4 GiB (90%)\r\n\r\nAudio\r\nFormat                                   : PCM\r\nDuration                                 : 51 min 23 s\r\nBit rate mode                            : Constant\r\nBit rate                                 : 2 304 kb/s\r\nChannel(s)                               : 2 channels\r\nChannel positions                        : Front: L R\r\nSampling rate                            : 48.0 kHz\r\nBit depth                                : 24 bits\r\nStream size                              : 847 MiB (6%)\r\n\r\nScreenshots:\r\n <a href=\"\nhttps://imgpile.com/i/nKNnu3\" rel=\"nofollow\" target=\"_NEW\">\nhttps://imgpile.com/i/nKNnu3</a> <a href=\"\nhttps://imgpile.com/i/nK7yFb\" rel=\"nofollow\" target=\"_NEW\">\nhttps://imgpile.com/i/nK7yFb</a> <a href=\"\nhttps://imgpile.com/i/nKN1Jl\" rel=\"nofollow\" target=\"_NEW\">\nhttps://imgpile.com/i/nKN1Jl</a>","last_updated":"2017-10-19T12:05:44.553Z","parsed":{"xt":"urn:btih:c971defc144a164057d129b6883550429f501d99","dn":"Kyary Pamyu Pamyu KPP MV01 2015 BluRay ISO [RiCK]","tr":["udp://exodus.desync.com:6969","udp://open.demonii.com:1337","udp://tracker.coppersurfer.tk:6969","udp://tracker.leechers-paradise.org:6969","udp://zer0day.ch:1337"],"infoHash":"c971defc144a164057d129b6883550429f501d99","infoHashBuffer":{"type":"Buffer","data":[201,113,222,252,20,74,22,64,87,209,41,182,136,53,80,66,159,80,29,153]},"name":"Kyary Pamyu Pamyu KPP MV01 2015 BluRay ISO [RiCK]","announce":["udp://exodus.desync.com:6969","udp://open.demonii.com:1337","udp://tracker.coppersurfer.tk:6969","udp://tracker.leechers-paradise.org:6969","udp://zer0day.ch:1337"],"urlList":[]}}